<svg width="1200" height="750" viewBox="0 0 1200 750" fill="none" xmlns="http://www.w3.org/2000/svg">
  <rect width="1200" height="750" fill="#DDF0D8"/>
  <circle cx="180" cy="180" r="95" fill="#F6D66B" opacity="0.45"/>
  <circle cx="1020" cy="620" r="130" fill="#9BD3BF" opacity="0.45"/>
  <path d="M130 520C320 390 460 600 650 470C760 390 840 290 1060 350" stroke="#B57C24" stroke-width="12" stroke-linecap="round" stroke-dasharray="18 20"/>
  <g transform="translate(320 370)">
    <ellipse cx="0" cy="0" rx="65" ry="42" fill="#F2BD35"/>
    <rect x="-44" y="-34" width="18" height="68" fill="#2C1F12"/>
    <rect x="-6" y="-40" width="18" height="80" fill="#2C1F12"/>
    <rect x="30" y="-34" width="18" height="68" fill="#2C1F12"/>
    <ellipse cx="-40" cy="-54" rx="28" ry="16" fill="#FFFFFF" fill-opacity="0.7"/>
    <ellipse cx="32" cy="-54" rx="28" ry="16" fill="#FFFFFF" fill-opacity="0.7"/>
  </g>
  <g transform="translate(760 280) scale(0.9)">
    <ellipse cx="0" cy="0" rx="65" ry="42" fill="#F2BD35"/>
    <rect x="-44" y="-34" width="18" height="68" fill="#2C1F12"/>
    <rect x="-6" y="-40" width="18" height="80" fill="#2C1F12"/>
    <rect x="30" y="-34" width="18" height="68" fill="#2C1F12"/>
    <ellipse cx="-40" cy="-54" rx="28" ry="16" fill="#FFFFFF" fill-opacity="0.7"/>
    <ellipse cx="32" cy="-54" rx="28" ry="16" fill="#FFFFFF" fill-opacity="0.7"/>
  </g>
</svg>
