<svg width="1200" height="750" viewBox="0 0 1200 750" fill="none" xmlns="http://www.w3.org/2000/svg">
  <rect width="1200" height="750" fill="#CEE9BD"/>
  <rect y="480" width="1200" height="270" fill="#8FC875"/>
  <g opacity="0.75">
    <circle cx="210" cy="380" r="60" fill="#FFCB7B"/>
    <circle cx="265" cy="420" r="45" fill="#FFDFA6"/>
    <circle cx="160" cy="430" r="42" fill="#FFDFA6"/>
  </g>
  <g opacity="0.75">
    <circle cx="920" cy="340" r="68" fill="#FFCB7B"/>
    <circle cx="980" cy="382" r="46" fill="#FFDFA6"/>
    <circle cx="860" cy="390" r="44" fill="#FFDFA6"/>
  </g>
  <g>
    <path d="M300 520V690" stroke="#4D7B42" stroke-width="10" stroke-linecap="round"/>
    <circle cx="300" cy="480" r="48" fill="#F9D26A"/>
    <circle cx="300" cy="430" r="28" fill="#FFFFFF" fill-opacity="0.8"/>
    <circle cx="255" cy="500" r="26" fill="#FFFFFF" fill-opacity="0.8"/>
    <circle cx="345" cy="500" r="26" fill="#FFFFFF" fill-opacity="0.8"/>
  </g>
  <g>
    <path d="M620 520V700" stroke="#4D7B42" stroke-width="10" stroke-linecap="round"/>
    <circle cx="620" cy="470" r="50" fill="#F9D26A"/>
    <circle cx="620" cy="420" r="30" fill="#FFFFFF" fill-opacity="0.8"/>
    <circle cx="573" cy="490" r="27" fill="#FFFFFF" fill-opacity="0.8"/>
    <circle cx="667" cy="490" r="27" fill="#FFFFFF" fill-opacity="0.8"/>
  </g>
  <g>
    <path d="M860 520V690" stroke="#4D7B42" stroke-width="10" stroke-linecap="round"/>
    <circle cx="860" cy="480" r="48" fill="#F9D26A"/>
    <circle cx="860" cy="430" r="28" fill="#FFFFFF" fill-opacity="0.8"/>
    <circle cx="815" cy="500" r="26" fill="#FFFFFF" fill-opacity="0.8"/>
    <circle cx="905" cy="500" r="26" fill="#FFFFFF" fill-opacity="0.8"/>
  </g>
</svg>
